<svg xmlns="http://www.w3.org/2000/svg" viewBox="0 0 1024 512">
  <defs>
    <linearGradient id="g" x1="0" x2="1" y1="0" y2="0">
      <stop offset="0%" stop-color="#0ea5e9"/>
      <stop offset="100%" stop-color="#0369a1"/>
    </linearGradient>
  </defs>
  <rect width="100%" height="100%" fill="none" />
  <g transform="translate(120,56)">
    <path d="M0 200 C80 160 160 40 300 40 C420 40 520 120 700 120 L820 120 L920 96 L820 64 L700 64 C520 64 420 0 300 0 C160 0 80 120 0 200 Z" fill="url(#g)" opacity="0.95"/>
    <g transform="translate(40,20) scale(0.8)">
      <path d="M10 180 C70 140 120 40 220 40 C320 40 380 120 520 120 L640 120" stroke="#0284c7" stroke-width="18" fill="none" stroke-linecap="round" stroke-linejoin="round" opacity="0.9"/>
      <path d="M0 210 C60 180 120 80 210 80 C300 80 360 160 480 160" stroke="#075985" stroke-width="14" fill="none" stroke-linecap="round" opacity="0.7"/>
    </g>
  </g>
</svg>
